<svg width="157" height="11" viewBox="0 0 157 11" fill="none" xmlns="http://www.w3.org/2000/svg">
<path d="M2 8.5L8.3091 3.22026C9.83249 1.94542 12.0606 1.98169 13.5417 3.30542L18.3666 7.61767C19.8847 8.97443 22.1797 8.97443 23.6977 7.61767L28.4366 3.38233C29.9546 2.02557 32.2496 2.02557 33.7676 3.38233L38.5065 7.61767C40.0245 8.97443 42.3195 8.97443 43.8376 7.61767L46.207 5.5L48.5764 3.38233C50.0945 2.02557 52.3894 2.02557 53.9075 3.38233L56.2769 5.5L58.6463 7.61767C60.1644 8.97443 62.4594 8.97443 63.9774 7.61767L68.7163 3.38233C70.2343 2.02557 72.5293 2.02557 74.0474 3.38233L78.7862 7.61767C80.3043 8.97443 82.5992 8.97443 84.1173 7.61767L88.8561 3.38233C90.3742 2.02557 92.6692 2.02557 94.1872 3.38233L99.0302 7.71078C100.503 9.02746 102.717 9.07122 104.241 7.81377L109.905 3.1408C111.405 1.90332 113.578 1.92373 115.054 3.18919L120.457 7.81991C121.928 9.08134 124.093 9.10612 125.593 7.87872L131.467 3.07241C132.941 1.86685 135.059 1.86685 136.533 3.07241L142.555 7.99983C143.989 9.17251 146.039 9.20805 147.512 8.08573L155.5 2" stroke="#2F70D9" stroke-width="3" stroke-linecap="round"/>
</svg>
